<?xml version="1.0" encoding="utf-8"?>
<!-- Generator: Adobe Illustrator 18.0.0, SVG Export Plug-In . SVG Version: 6.00 Build 0)  -->
<!DOCTYPE svg PUBLIC "-//W3C//DTD SVG 1.1//EN" "http://www.w3.org/Graphics/SVG/1.1/DTD/svg11.dtd">
<svg version="1.1" id="Layer_1" xmlns="http://www.w3.org/2000/svg" xmlns:xlink="http://www.w3.org/1999/xlink" x="0px" y="0px"
	 viewBox="0 0 976 149" enable-background="new 0 0 976 149" xml:space="preserve">
<g>
	<defs>
		<rect id="SVGID_1_" x="14.2" y="20.9" width="102.9" height="100"/>
	</defs>
	<clipPath id="SVGID_2_">
		<use xlink:href="#SVGID_1_"  overflow="visible"/>
	</clipPath>
	<path clip-path="url(#SVGID_2_)" fill="#182642" d="M117.2,20.9v100H64.2c-27.6,0-50-22.4-50-50c0-27.6,22.4-50,50-50H117.2z"/>
	<path clip-path="url(#SVGID_2_)" fill="#FFFFFF" d="M76.1,66.2c-1.9-4.7-6.5-8-11.8-8c-7,0-12.7,5.7-12.7,12.7s5.7,12.7,12.7,12.7
		c5.3,0,9.9-3.3,11.8-7.9l32.3,0c-2.4,22.2-21.2,39.5-44.1,39.5v3.5c-26,0-47.8-21.8-47.8-47.8s21.8-47.8,47.8-47.8v3.5
		c22.9,0,41.7,17.4,44.1,39.6L76.1,66.2z"/>
	<path clip-path="url(#SVGID_2_)" fill="#079B75" d="M63.5,86.5c-3.8-0.2-7.2-1.7-9.8-4.1L34.1,102c7.6,7.4,18,12,29.4,12.2V86.5z"
		/>
	<path clip-path="url(#SVGID_2_)" fill="#2B7BB9" d="M52.7,81.4c-2.5-2.8-4.1-6.5-4.1-10.5c0-4,1.5-7.7,4-10.5L33.1,40.8
		c-7.5,7.8-12.1,18.4-12.1,30.1c0,11.7,4.6,22.3,12.2,30.1L52.7,81.4z"/>
	<path clip-path="url(#SVGID_2_)" fill="#FDB817" d="M63.5,27.6c-11.4,0.2-21.8,4.8-29.4,12.2l19.6,19.6c2.6-2.4,6-3.9,9.8-4.1
		L63.5,27.6z"/>
	<path clip-path="url(#SVGID_2_)" fill="#FFFFFF" d="M63.5,100.1v3.7c0,0,0,0,0,0L63.5,100.1C63.5,100.1,63.5,100.1,63.5,100.1"/>
	<path clip-path="url(#SVGID_2_)" fill="#FFFFFF" d="M63.5,96.7v1.6c0,0,0,0,0,0L63.5,96.7C63.5,96.7,63.5,96.7,63.5,96.7"/>
	<path clip-path="url(#SVGID_2_)" fill="#FFFFFF" d="M63.5,27.9l0,2.8c0,0,0,0,0,0L63.5,27.9C63.5,27.9,63.5,27.9,63.5,27.9"/>
	<path clip-path="url(#SVGID_2_)" fill="#FFFFFF" d="M63.5,31.9l0,4.4c0,0,0,0,0,0L63.5,31.9C63.5,31.9,63.5,31.9,63.5,31.9"/>
	<path clip-path="url(#SVGID_2_)" fill="#007558" d="M34.3,101.9l-0.1,0.1c0.3,0.3,0.6,0.6,0.9,0.8
		C34.8,102.6,34.5,102.2,34.3,101.9"/>
	<g clip-path="url(#SVGID_2_)">
		<path fill="#F79D26" d="M60.5,27.7c-3.7,0.3-7.3,1.1-10.6,2.3c1.7-0.2,3.4-0.4,5.1-0.4c2.9,0,5.8,0.4,8.6,1.1l0-2.8
			C62.5,27.8,61.5,27.7,60.5,27.7"/>
		<path fill="#F79D26" d="M55.3,30.9c-4.6,0-9.1,1-13.3,2.8c-2.9,1.7-5.5,3.8-7.9,6.1l0.3,0.3c5.6-3.5,12.1-5.4,18.7-5.4
			c3.5,0,7,0.5,10.4,1.6l0-4.4C60.8,31.2,58,30.9,55.3,30.9"/>
		<path fill="#F79D26" d="M52.8,35.9c-6.4,0-12.4,1.9-17.5,5.1l2.8,2.8c4.7-2.4,10.1-3.8,15.8-3.8c3.3,0,6.5,0.5,9.5,1.3l0-3.7
			C60.1,36.6,56.6,35.9,52.8,35.9"/>
		<path fill="#F79D26" d="M53.2,41.6c-4.8,0-9.6,1-14.1,3.2l3,3c4.9-2.4,10.1-3.5,15.3-3.5c2.1,0,4.1,0.2,6.1,0.5l0-1.6
			C60.2,42.1,56.7,41.6,53.2,41.6"/>
		<path fill="#F79D26" d="M56.5,46.2c-4.5,0-9,0.9-13.2,2.8l1.8,1.8c4.3-2.5,9.1-4,14.1-4.5C58.3,46.2,57.4,46.2,56.5,46.2"/>
	</g>
	<g clip-path="url(#SVGID_2_)">
		<path fill="#007558" d="M46.7,89.5l-0.4,0.4c3.9,6.4,10,11.3,17.2,13.8v-3.7C56.9,98.2,51.1,94.5,46.7,89.5"/>
		<path fill="#007558" d="M55.1,94.1c2.6,1.8,5.5,3.2,8.4,4.2v-1.6C60.6,96.2,57.8,95.3,55.1,94.1"/>
		<path fill="#007558" d="M37.8,98.3l-2.7,2.7c2.6,3.5,5.9,6.5,9.6,8.7c3.9,1.9,8,3.3,12.4,4C49.1,111.1,42.2,105.5,37.8,98.3"/>
		<path fill="#007558" d="M41.8,94.4l-3,3c5.4,9.4,14.8,15,24.8,16.2v-2.8C54.7,108.5,46.7,102.9,41.8,94.4"/>
		<path fill="#007558" d="M44.9,91.3l-2,2c2.8,5.2,7,9.7,12.5,12.9c2.6,1.5,5.3,2.6,8.1,3.3v-4.4c-2.4-0.8-4.8-1.8-7.1-3.1
			C51.6,99.3,47.8,95.6,44.9,91.3"/>
	</g>
	<g clip-path="url(#SVGID_2_)">
		<path fill="#205D8C" d="M34.1,41.8c-2.5,1.7-4.7,3.8-6.6,6.1c-2.4,3.8-4.1,7.9-5.3,12.4c3.1-6.7,8.2-12.2,14.6-15.8L34.1,41.8z"/>
		<path fill="#205D8C" d="M37.7,45.5c-0.3,0.2-0.6,0.3-0.9,0.5C28.1,51,22.6,59.5,21,68.7c0,0.7-0.1,1.5-0.1,2.2
			c0,4.1,0.6,8.2,1.7,12c-1.3-13.3,5-26.8,17.3-33.9c0.3-0.2,0.5-0.3,0.8-0.5L37.7,45.5z"/>
		<path fill="#205D8C" d="M41.9,49.6c-5.6,2.8-10.5,7.2-13.8,13c-5.3,9.2-5.7,19.9-1.9,29c1.9,3.4,4.2,6.6,6.9,9.4l0.3-0.3
			c-7.2-10.7-8.1-25.1-1.2-37c2.9-5.1,7-9.2,11.6-12.1L41.9,49.6z"/>
		<path fill="#205D8C" d="M45.2,53c-9.9,5.7-16.5,16.3-16.5,28.5c0,6.8,2.1,13.1,5.6,18.3l2.8-2.8c-2.7-5-4.2-10.7-4.2-16.7
			c0-10.9,4.9-20.6,12.7-27L45.2,53z"/>
		<path fill="#205D8C" d="M40.2,62.3C33.4,72,32.2,85,38,96.1l3-3C35.8,83.2,35.8,71.8,40.2,62.3"/>
		<path fill="#205D8C" d="M39.1,75.1c-0.5,5.8,0.6,11.6,3.1,16.8l1.9-1.9C41.3,85.5,39.6,80.4,39.1,75.1"/>
	</g>
</g>
<g>
	<g>
		<g>
			<g>
				<path fill="#182642" d="M179.5,107.1c-21.3,0-37.1-16.1-37.1-36.5v-0.2c0-20.2,15.5-36.7,37.7-36.7c13.6,0,21.8,4.5,28.5,10.9
					l-10.1,11.5c-5.6-5-11.3-8-18.5-8c-12.2,0-21,9.9-21,22.1v0.2c0,12.2,8.6,22.3,21,22.3c8.3,0,13.3-3.2,19-8.3l10.1,10
					C201.7,102.2,193.5,107.1,179.5,107.1z"/>
			</g>
			<path fill="#182642" d="M323.7,81.2c9.2-3.4,15.5-10.7,15.5-22.4v-0.2c0-14.9-10.2-23.9-27.3-23.9h-33.1v72.3h15.9V83.9h12.5
				l15.5,23.1h18.6L323.7,81.2z M323.1,59.6c0,6.1-4.4,10.2-12.2,10.2h-16.1V49.1h15.8c7.7,0,12.5,3.5,12.5,10.3V59.6z"/>
			<path fill="#182642" d="M512.1,81.2c9.2-3.4,15.5-10.7,15.5-22.4v-0.2c0-14.9-10.2-23.9-27.3-23.9h-33.1v72.3h15.9V83.9h12.5
				l15.5,23.1h18.6L512.1,81.2z M511.4,59.6c0,6.1-4.4,10.2-12.2,10.2h-16.1V49.1h15.8c7.7,0,12.5,3.5,12.5,10.3V59.6z"/>
			<path fill="#182642" d="M256.2,35.7c-3.5-1.3-7.5-2-12-2h-1.9c-4.5,0-8.5,0.7-12,2c-10,3.7-15.8,12.1-15.8,23.1V59v48h16.3V84.1
				h24.9v22.9H272V59v-0.2C272,47.8,266.2,39.4,256.2,35.7z M230.7,69.9l0-10.9c0-7,4.9-10.7,12.6-10.9c7.7,0.1,12.5,3.9,12.6,10.9
				l0,10.9H230.7z"/>
			<polygon fill="#182642" points="361.1,92.9 361.1,83.9 395.1,83.9 395.1,69.7 361.1,69.7 361.1,48.9 400.4,48.9 400.4,34.7 
				345.3,34.7 345.3,107.1 400.4,107.1 400.4,92.9 			"/>
			<polygon fill="#182642" points="422.1,92.9 422.1,83.9 456.1,83.9 456.1,69.7 422.1,69.7 422.1,48.9 461.3,48.9 461.3,34.7 
				406.3,34.7 406.3,107.1 461.3,107.1 461.3,92.9 			"/>
		</g>
		<g>
			<path fill="#182642" d="M577.8,69.9c5.9-2.4,12.3-7.3,12.3-17.1v-0.2c0-10.8-9.4-17.7-23.4-17.7H537v72.1h31.3
				c15.5,0,25.8-7.6,25.8-19.7v-0.2C594.1,77.1,586.5,72.1,577.8,69.9z M542.3,39.8h24.3c11.5,0,18,5.4,18,13.3v0.2
				c0,9.6-7.7,14.7-18.5,14.7h-23.8V39.8z M588.7,87.3c0,9.1-7.8,14.7-20.2,14.7h-26.1v-29h24.4c14.2,0,21.9,5.3,21.9,14.1V87.3z"/>
			<g>
				<path fill="#182642" d="M632,108.1c-17.3,0-29.5-10.9-29.5-31.1V34.9h5.4v41.6c0,17,9.2,26.8,24.4,26.8c14.6,0,24-8.9,24-26.3
					V34.9h5.4v41.5C661.6,97,649.5,108.1,632,108.1z"/>
			</g>
			<g>
				<rect x="677.5" y="34.9" fill="#182642" width="5.4" height="72.1"/>
			</g>
			<g>
				<polygon fill="#182642" points="698.7,106.9 698.7,34.9 704.1,34.9 704.1,102 746.4,102 746.4,106.9 				"/>
			</g>
			<path fill="#182642" d="M778.7,34.9h-24v72.1h24c22.6,0,38.3-15.8,38.3-36v-0.2C817,50.4,801.3,34.9,778.7,34.9z M811.4,71.1
				c0,17.2-12.7,30.9-32.7,30.9h-18.6V39.8h18.6c20.1,0,32.7,14,32.7,31.1V71.1z"/>
			<g>
				<polygon fill="#182642" points="825.5,106.9 825.5,34.9 876.7,34.9 876.7,39.8 830.8,39.8 830.8,68 872.1,68 872.1,72.9 
					830.8,72.9 830.8,102 877.3,102 877.3,106.9 				"/>
			</g>
			<path fill="#182642" d="M919.4,72.9c9.8-0.7,19.6-5,19.3-19.9c-0.2-13-9.5-18.3-23.5-18.3h-29.8v72.1h5.4l0-0.1v-4.9V72.9
				c0,0,18.9,0,20.5,0l1.5,0l24.6,34l6.8,0L919.4,72.9z M890.8,68V39.7h24.3c11.5,0,17.7,4.3,18,13.3c0.4,11.5-6.5,15-18.5,15
				C906.3,68,890.8,68,890.8,68z"/>
		</g>
	</g>
	<g>
		<path fill="#182642" d="M943.7,36.4h-2.6v-1.7h7v1.7h-2.6v6.7h-1.8V36.4z"/>
		<path fill="#182642" d="M949.6,34.7h2l2.2,3.6l2.2-3.6h2v8.4h-1.8v-5.5l-2.4,3.6h0l-2.3-3.5v5.4h-1.8V34.7z"/>
	</g>
</g>
</svg>
